# xmcd
#
# Track frame offsets: 
#        150
#        674
#        22553
#        37166
#        51789
#        72716
#        89540
#        107253
#        121878
#        136008
#        151586
#        170812
#        186369
#        202826
#        221082
#        236237
#        255450
#        267777
#        282960
#        300180
#        315314
#
# Disc length: 4434 seconds
#
# Revision: 0
# Processed by: cddbd v1.5.2PL0 Copyright (c) Steve Scherf et al.
# Submitted via: ExactAudioCopy v0.99pb4
#
DISCID=14115015
DTITLE=Various Artist - prevue promo 1046A-2
DYEAR=2000
DGENRE=pop
TTITLE0=blank - data
TTITLE1=Mark Schultz - He's My Son 
TTITLE2=Brian Setzer - Getting' In The Mood(talkin trash version)
TTITLE3=Brian Setzer - Getting' In The Mood(trumpet solo version)
TTITLE4=dwayne  Wiggins - R&B Singer 
TTITLE5=Jon Secada - stop
TTITLE6=Amel Larrieux - Sweet Misery
TTITLE7=Toni Estes - hot
TTITLE8=Lock 'N' Load - Blow Ya Mind
TTITLE9=Mellow Trax - Outta Space
TTITLE10=Grace - Not Over Yet
TTITLE11=Marvelous 3 - sugarbuzz
TTITLE12=Mile - Back To The Floor 
TTITLE13=Wheatus - Teenage Dirt Bag(lyrics)
TTITLE14=Sunna - Power Struggle
TTITLE15=Motley Crue - Hell on High Heels
TTITLE16=Dope - You Spin Me Round(Like A Record) 
TTITLE17=Foo  Fighters - Next Year
TTITLE18=Pitchshifter - Keep it Clean
TTITLE19=Static-X - Love Dump 
TTITLE20=hed - Bartender 
EXTD=
EXTT0=
EXTT1=
EXTT2=
EXTT3=
EXTT4=
EXTT5=
EXTT6=
EXTT7=
EXTT8=
EXTT9=
EXTT10=
EXTT11=
EXTT12=
EXTT13=
EXTT14=
EXTT15=
EXTT16=
EXTT17=
EXTT18=
EXTT19=
EXTT20=
PLAYORDER=
